<svg width="132" height="69" viewBox="0 0 132 69" fill="none" xmlns="http://www.w3.org/2000/svg">
<path d="M10.368 24.544L8.616 19.36H3.864L2.016 24.544H3.816V25H0.144V24.544H1.272L7.392 8.056H9.36L15.408 24.544H16.512V25H8.664V24.544H10.368ZM6.336 12.544L4.08 18.832H8.424L6.336 12.544ZM30.8241 8.656V25H27.4641L19.2321 9.472V24.544H20.5521V25H17.2641V24.544H18.5841V8.656H17.2641V8.2H23.8881L30.1761 20.248V8.656H28.8561V8.2H32.1441V8.656H30.8241ZM48.0062 8.2L48.2462 14.224H47.7902C47.0862 12.096 46.4622 10.648 45.9182 9.88C45.3742 9.096 44.5902 8.704 43.5662 8.704H43.2782V24.496H45.3182V25H36.5582V24.496H38.5982V8.704H38.2862C37.2622 8.704 36.4702 9.112 35.9102 9.928C35.3502 10.728 34.7342 12.16 34.0622 14.224H33.6062L33.8462 8.2H48.0062ZM60.4224 17.584V15.808C60.4224 12.88 60.2784 11.032 59.9904 10.264C59.6704 9.384 59.2144 8.84 58.6224 8.632C58.2864 8.504 57.8784 8.44 57.3984 8.44C56.9184 8.44 56.5024 8.504 56.1504 8.632C55.8144 8.76 55.5344 8.984 55.3104 9.304C55.0864 9.624 54.9024 9.96 54.7584 10.312C54.6304 10.664 54.5264 11.16 54.4464 11.8C54.3504 12.728 54.3024 14.096 54.3024 15.904V17.632C54.3024 19.584 54.3744 20.976 54.5184 21.808C54.6784 22.624 54.8704 23.208 55.0944 23.56C55.5904 24.344 56.3584 24.736 57.3984 24.736C58.6624 24.736 59.4784 24.208 59.8464 23.152C60.2304 22.08 60.4224 20.224 60.4224 17.584ZM57.3504 25.24C54.6784 25.24 52.6784 24.52 51.3504 23.08C50.0384 21.624 49.3824 19.528 49.3824 16.792C49.3824 14.04 50.0864 11.88 51.4944 10.312C52.9184 8.728 54.9264 7.936 57.5184 7.936C60.1104 7.936 62.0624 8.688 63.3744 10.192C64.7024 11.68 65.3664 13.8 65.3664 16.552C65.3664 19.304 64.6944 21.44 63.3504 22.96C62.0224 24.48 60.0224 25.24 57.3504 25.24ZM80.5116 8.656V25H77.1516L68.9196 9.472V24.544H70.2396V25H66.9516V24.544H68.2716V8.656H66.9516V8.2H73.5756L79.8636 20.248V8.656H78.5436V8.2H81.8316V8.656H80.5116ZM0.504 40.2H7.992V40.656H6.6V48.096H11.376V40.656H9.96V40.2H17.472V40.656H16.056V56.544H17.472V57H9.96V56.544H11.376V48.72H6.6V56.544H7.992V57H0.504V56.544H1.92V40.656H0.504V40.2ZM30.0006 49.584V47.808C30.0006 44.88 29.8566 43.032 29.5686 42.264C29.2486 41.384 28.7926 40.84 28.2006 40.632C27.8646 40.504 27.4566 40.44 26.9766 40.44C26.4966 40.44 26.0806 40.504 25.7286 40.632C25.3926 40.76 25.1126 40.984 24.8886 41.304C24.6646 41.624 24.4806 41.96 24.3366 42.312C24.2086 42.664 24.1046 43.16 24.0246 43.8C23.9286 44.728 23.8806 46.096 23.8806 47.904V49.632C23.8806 51.584 23.9526 52.976 24.0966 53.808C24.2566 54.624 24.4486 55.208 24.6726 55.56C25.1686 56.344 25.9366 56.736 26.9766 56.736C28.2406 56.736 29.0566 56.208 29.4246 55.152C29.8086 54.08 30.0006 52.224 30.0006 49.584ZM26.9286 57.24C24.2566 57.24 22.2566 56.52 20.9286 55.08C19.6166 53.624 18.9606 51.528 18.9606 48.792C18.9606 46.04 19.6646 43.88 21.0726 42.312C22.4966 40.728 24.5046 39.936 27.0966 39.936C29.6886 39.936 31.6406 40.688 32.9526 42.192C34.2806 43.68 34.9446 45.8 34.9446 48.552C34.9446 51.304 34.2726 53.44 32.9286 54.96C31.6006 56.48 29.6006 57.24 26.9286 57.24ZM36.4337 40.2H45.0737V40.728H42.5297V56.472H43.3937C44.7537 56.472 45.8337 56.056 46.6337 55.224C47.4497 54.392 48.2737 53.112 49.1057 51.384H49.6097L49.1537 57H36.4337V56.472H37.8497V40.728H36.4337V40.2ZM62.0162 49.584V47.808C62.0162 44.88 61.8722 43.032 61.5842 42.264C61.2642 41.384 60.8082 40.84 60.2162 40.632C59.8802 40.504 59.4722 40.44 58.9922 40.44C58.5122 40.44 58.0962 40.504 57.7442 40.632C57.4082 40.76 57.1282 40.984 56.9042 41.304C56.6802 41.624 56.4962 41.96 56.3522 42.312C56.2242 42.664 56.1202 43.16 56.0402 43.8C55.9442 44.728 55.8962 46.096 55.8962 47.904V49.632C55.8962 51.584 55.9682 52.976 56.1122 53.808C56.2722 54.624 56.4642 55.208 56.6882 55.56C57.1842 56.344 57.9522 56.736 58.9922 56.736C60.2562 56.736 61.0722 56.208 61.4402 55.152C61.8242 54.08 62.0162 52.224 62.0162 49.584ZM58.9442 57.24C56.2722 57.24 54.2722 56.52 52.9442 55.08C51.6322 53.624 50.9762 51.528 50.9762 48.792C50.9762 46.04 51.6802 43.88 53.0882 42.312C54.5122 40.728 56.5202 39.936 59.1122 39.936C61.7042 39.936 63.6562 40.688 64.9682 42.192C66.2962 43.68 66.9602 45.8 66.9602 48.552C66.9602 51.304 66.2882 53.44 64.9442 54.96C63.6162 56.48 61.6162 57.24 58.9442 57.24ZM76.9528 52.656L81.1288 40.656H79.2568V40.2H82.9288V40.656H81.8008L76.0168 57.24H74.0008L67.8808 40.656H66.7768V40.2H74.6248V40.656H72.9208L76.9528 52.656ZM92.5905 48.096L95.9985 40.584H93.5745V40.2H98.3025V40.584H96.7185L93.0945 48.6V56.544H94.5585V57H86.9505V56.544H88.4145V49.056L84.3345 40.584H83.2065V40.2H90.8865V40.584H89.3265L92.5905 48.096ZM112.598 40.656V57H109.238L101.006 41.472V56.544H102.326V57H99.0375V56.544H100.358V40.656H99.0375V40.2H105.662L111.95 52.248V40.656H110.63V40.2H113.918V40.656H112.598Z" fill="white"/>
<path d="M100.716 0L101.117 17.1282L85.4018 26.0167L85 8.88844L100.716 0Z" fill="white"/>
<path d="M99.2504 3.25516L99.5772 17.1836L86.7975 24.4116L86.4707 10.4831L99.2504 3.25516Z" fill="#020011"/>
<rect width="18.0786" height="18.0786" transform="matrix(0.880617 -0.473829 0.880617 0.473829 85.1839 25.6985)" fill="white"/>
<rect width="3.95814" height="3.73825" transform="matrix(0.880617 -0.473829 0.880617 0.473829 90.515 27.2175)" fill="#020011"/>
<rect width="3.95814" height="3.73825" transform="matrix(0.880617 -0.473829 0.880617 0.473829 95.4717 24.5893)" fill="#020011"/>
<rect width="3.95814" height="3.73825" transform="matrix(0.880617 -0.473829 0.880617 0.473829 105.246 24.5893)" fill="#020011"/>
<rect width="3.95814" height="3.73825" transform="matrix(0.880617 -0.473829 0.880617 0.473829 100.359 27.2339)" fill="#020011"/>
<rect width="3.95814" height="3.73825" transform="matrix(0.880617 -0.473829 0.880617 0.473829 95.314 29.4376)" fill="#020011"/>
<rect width="3.95814" height="3.73825" transform="matrix(0.880617 -0.473829 0.880617 0.473829 100.516 22.0916)" fill="#020011"/>
</svg>
